<?xml version="1.0" encoding="UTF-8" standalone="no"?>
<!-- Created with Inkscape (http://www.inkscape.org/) -->

<svg
   width="80mm"
   height="80.000008mm"
   viewBox="0 0 80 80.000008"
   version="1.1"
   id="svg5"
   xml:space="preserve"
   inkscape:export-filename="favicon_dark.svg"
   inkscape:export-xdpi="20.32"
   inkscape:export-ydpi="20.32"
   xmlns:inkscape="http://www.inkscape.org/namespaces/inkscape"
   xmlns:sodipodi="http://sodipodi.sourceforge.net/DTD/sodipodi-0.dtd"
   xmlns="http://www.w3.org/2000/svg"
   xmlns:svg="http://www.w3.org/2000/svg"><sodipodi:namedview
     id="namedview7"
     pagecolor="#ffffff"
     bordercolor="#999999"
     borderopacity="1"
     inkscape:showpageshadow="0"
     inkscape:pageopacity="0"
     inkscape:pagecheckerboard="0"
     inkscape:deskcolor="#d1d1d1"
     inkscape:document-units="mm"
     showgrid="false" /><defs
     id="defs2" /><g
     inkscape:label="Ebene 1"
     inkscape:groupmode="layer"
     id="layer1"><g
       id="g3283"
       style="fill:#1a1a1a;stroke:#ff00ff;stroke-width:0.1;stroke-linecap:round;stroke-dasharray:none"><path
         style="fill:#1a1a1a;stroke:#ff00ff;stroke-width:0.1;stroke-linecap:round;stroke-dasharray:none;stroke-opacity:1"
         d="m 63.348651,76.25724 c -1.6422,-0.61055 -2.37008,-1.24444 -9.92369,-8.6422 C 44.74985,59.11891 44.86711,59.3694 48.099093,56.23839 50.223777,54.18008 50.20919,54.22129 49.166444,53.22228 48.381711,52.47046 48.381711,52.47046 47.512798,53.17758 27.30875,69.62061 -0.52903484,56.52417 0.54629816,31.08192 1.1383022,17.075176 12.713495,4.9271339 25.467731,4.9271339 c 1.39917,0 1.39917,0 1.517825,-1.430836 0.251603,-3.03398799 -1.098349,-2.80249699 16.34297,-2.80249699 15.325565,0 15.325565,0 18.845465,3.42996599 3.51989,3.429966 3.51989,3.429966 5.61462,3.439583 2.09473,0.0096 2.09473,0.0096 5.56834,3.4492001 3.42003,3.386522 3.492,3.439584 4.66538,3.439584 1.92095,0 1.82676,-0.632738 1.82676,12.272516 0,13.20941 0.0588,12.81805 -2.27605,15.15288 -2.39975,2.39976 -2.10729,2.34846 -12.9977,2.27987 -9.58521,-0.0604 -9.58521,-0.0604 -10.695,1.5875 -0.61038,0.90632 -1.64097,2.34407 -2.29018,3.19499 -2.17998,2.85725 -0.25041,3.8785 2.42556,1.28376 3.11298,-3.01848 1.94145,-3.66704 13.4405,7.44065 7.08871,6.84745 7.51856,7.4943 7.30914,10.99909 -0.32951,5.51455 -6.30997,9.49245 -11.41671,7.59381 z m 5.06571,-2.9493 c 4.53009,-1.89233 4.70646,-6.31715 0.41602,-10.43701 -1.13659,-1.0914 -4.23115,-4.09773 -6.87679,-6.68073 -5.73048,-5.5948 -4.52492,-5.46188 -8.97528,-0.98958 -4.367336,4.38885 -4.233814,4.05336 -2.310653,5.80573 0.842863,0.76801 3.921623,3.76047 6.841703,6.64991 6.32661,6.26023 7.71973,6.98224 10.905,5.65168 z M 31.430344,57.44377 c 8.249981,-0.89792 17.065439,-7.16205 21.033047,-14.94575 0.69552,-1.36447 0.26674,-1.31451 11.31818,-1.31887 10.98485,-0.004 11.53967,-0.12205 12.94414,-2.74633 0.28781,-0.53778 0.33098,-20.510954 0.0449,-20.797564 -0.077,-0.0772 -5.2761,-0.17723 -11.55344,-0.22229 -12.25526,-0.088 -12.17592,-0.0782 -12.0384,-1.47701 0.13547,-1.378012 0.69655,-1.487788 7.48799,-1.465056 6.08542,0.02037 6.08542,0.02037 6.16196,-1.942739 0.0765,-1.963109 0.0765,-1.963109 -10.04822,-2.153775 -10.685039,-0.201217 -10.798114,-0.216699 -10.798114,-1.4784621 0,-1.200757 0.389178,-1.304651 5.17852,-1.382452 4.478774,-0.07276 4.478774,-0.07276 4.478774,-2.057131 0,-2.141692 -25.023997,-3.503204 -25.590401,-1.392329 -0.226431,0.843866 -0.01,1.017769 1.559454,1.253126 C 54.737801,8.7855559 59.065721,41.81308 37.712607,51.89742 16.03833,62.13342 -3.6658818,34.15167 13.300691,17.230296 27.695372,2.8739729 52.169961,18.674846 43.422736,36.67718 37.039719,49.81382 17.498057,47.14479 16.440022,32.99184 15.944874,26.36843 22.907524,18.543496 28.129897,19.85423 c 1.860666,0.46699 1.374846,2.34825 -0.718783,2.78337 -13.074699,2.71729 -8.871135,21.96509 4.283585,19.61421 C 46.263901,39.64815 45.350639,18.778406 30.501307,14.980584 13.955748,10.748943 2.8034442,33.24187 15.282973,45.67423 25.504815,55.85744 43.138852,50.85928 47.959023,36.4126 54.456131,16.940036 31.793149,-0.01856009 14.57963,11.434919 -4.9322838,24.41771 2.4491182,55.28346 25.609511,57.55701 c 2.209958,0.21694 2.912821,0.20327 5.820833,-0.11324 z"
         id="path207"
         inkscape:export-filename="favicon.svg"
         inkscape:export-xdpi="21.379999"
         inkscape:export-ydpi="21.379999" /><g
         id="path361"
         style="fill:#1a1a1a;stroke:#ff00ff;stroke-width:0.1;stroke-linecap:round;stroke-dasharray:none;stroke-opacity:1"><path
           style="color:#000000;fill:#1a1a1a;stroke:#ff00ff;stroke-width:0.1;stroke-linecap:round;stroke-dasharray:none;stroke-opacity:1"
           d="m 56.128921,22.46937 h 14.94991"
           id="path3121" /><path
           style="color:#000000;fill:#1a1a1a;stroke:#ff00ff;stroke-width:0.1;stroke-linecap:round;stroke-dasharray:none;stroke-opacity:1"
           d="m 56.128906,20.46875 a 2,2 0 0 0 -2,2 2,2 0 0 0 2,2 h 14.949219 a 2,2 0 0 0 2,-2 2,2 0 0 0 -2,-2 z"
           id="path3123" /></g><g
         id="path361-2"
         style="fill:#1a1a1a;stroke:#ff00ff;stroke-width:0.1;stroke-linecap:round;stroke-dasharray:none"><path
           style="color:#000000;fill:#1a1a1a;stroke:#ff00ff;stroke-width:0.1;stroke-linecap:round;stroke-dasharray:none"
           d="m 56.043761,34.85327 h 15.32745"
           id="path3254" /><path
           style="color:#000000;fill:#1a1a1a;stroke:#ff00ff;stroke-width:0.1;stroke-linecap:round;stroke-dasharray:none"
           d="m 56.042969,34.103516 a 0.75,0.75 0 0 0 -0.75,0.75 0.75,0.75 0 0 0 0.75,0.75 h 15.328125 a 0.75,0.75 0 0 0 0.75,-0.75 0.75,0.75 0 0 0 -0.75,-0.75 z"
           id="path3256" /></g><g
         id="path361-3"
         style="fill:#1a1a1a;stroke:#ff00ff;stroke-width:0.1;stroke-linecap:round;stroke-dasharray:none"><path
           style="color:#000000;fill:#1a1a1a;stroke:#ff00ff;stroke-width:0.1;stroke-linecap:round;stroke-dasharray:none"
           d="m 56.084431,27.63065 h 6.40711"
           id="path3218" /><path
           style="color:#000000;fill:#1a1a1a;stroke:#ff00ff;stroke-width:0.1;stroke-linecap:round;stroke-dasharray:none"
           d="m 56.083984,26.830078 a 0.80000001,0.80000001 0 0 0 -0.798828,0.800781 0.80000001,0.80000001 0 0 0 0.798828,0.798828 h 6.408203 a 0.80000001,0.80000001 0 0 0 0.798829,-0.798828 0.80000001,0.80000001 0 0 0 -0.798829,-0.800781 z"
           id="path3220" /></g><g
         id="path361-3-6"
         style="fill:#1a1a1a;stroke:#ff00ff;stroke-width:0.1;stroke-linecap:round;stroke-dasharray:none"><path
           style="color:#000000;fill:#1a1a1a;stroke:#ff00ff;stroke-width:0.1;stroke-linecap:round;stroke-dasharray:none"
           d="m 64.960941,27.58615 h 6.40711"
           id="path3224" /><path
           style="color:#000000;fill:#1a1a1a;stroke:#ff00ff;stroke-width:0.1;stroke-linecap:round;stroke-dasharray:none"
           d="m 64.960937,26.787109 a 0.80000001,0.80000001 0 0 0 -0.800781,0.798828 0.80000001,0.80000001 0 0 0 0.800781,0.800782 h 6.40625 a 0.80000001,0.80000001 0 0 0 0.800782,-0.800782 0.80000001,0.80000001 0 0 0 -0.800782,-0.798828 z"
           id="path3226" /></g><g
         id="path361-3-7"
         style="fill:#1a1a1a;stroke:#ff00ff;stroke-width:0.1;stroke-linecap:round;stroke-dasharray:none"><path
           style="color:#000000;fill:#1a1a1a;stroke:#ff00ff;stroke-width:0.1;stroke-linecap:round;stroke-dasharray:none"
           d="m 56.117811,30.03331 h 6.40711"
           id="path3230" /><path
           style="color:#000000;fill:#1a1a1a;stroke:#ff00ff;stroke-width:0.1;stroke-linecap:round;stroke-dasharray:none"
           d="m 56.117187,29.232422 a 0.80000001,0.80000001 0 0 0 -0.798828,0.800781 0.80000001,0.80000001 0 0 0 0.798828,0.800781 h 6.408204 a 0.80000001,0.80000001 0 0 0 0.798828,-0.800781 0.80000001,0.80000001 0 0 0 -0.798828,-0.800781 z"
           id="path3232" /></g><g
         id="path361-3-6-5"
         style="fill:#1a1a1a;stroke:#ff00ff;stroke-width:0.1;stroke-linecap:round;stroke-dasharray:none"><path
           style="color:#000000;fill:#1a1a1a;stroke:#ff00ff;stroke-width:0.1;stroke-linecap:round;stroke-dasharray:none"
           d="m 64.994321,29.98881 h 6.40711"
           id="path3236" /><path
           style="color:#000000;fill:#1a1a1a;stroke:#ff00ff;stroke-width:0.1;stroke-linecap:round;stroke-dasharray:none"
           d="m 64.994141,29.189453 a 0.80000001,0.80000001 0 0 0 -0.800782,0.798828 0.80000001,0.80000001 0 0 0 0.800782,0.800781 h 6.408203 a 0.80000001,0.80000001 0 0 0 0.798828,-0.800781 0.80000001,0.80000001 0 0 0 -0.798828,-0.798828 z"
           id="path3238" /></g><g
         id="path361-3-3"
         style="fill:#1a1a1a;stroke:#ff00ff;stroke-width:0.1;stroke-linecap:round;stroke-dasharray:none"><path
           style="color:#000000;fill:#1a1a1a;stroke:#ff00ff;stroke-width:0.1;stroke-linecap:round;stroke-dasharray:none"
           d="m 56.051051,32.43598 h 6.40711"
           id="path3242" /><path
           style="color:#000000;fill:#1a1a1a;stroke:#ff00ff;stroke-width:0.1;stroke-linecap:round;stroke-dasharray:none"
           d="m 56.050781,31.636719 a 0.80000001,0.80000001 0 0 0 -0.798828,0.798828 0.80000001,0.80000001 0 0 0 0.798828,0.800781 h 6.408203 a 0.80000001,0.80000001 0 0 0 0.798828,-0.800781 0.80000001,0.80000001 0 0 0 -0.798828,-0.798828 z"
           id="path3244" /></g><g
         id="path361-3-6-56"
         style="fill:#1a1a1a;stroke:#ff00ff;stroke-width:0.1;stroke-linecap:round;stroke-dasharray:none"><path
           style="color:#000000;fill:#1a1a1a;stroke:#ff00ff;stroke-width:0.1;stroke-linecap:round;stroke-dasharray:none"
           d="m 64.927561,32.39148 h 6.40711"
           id="path3248" /><path
           style="color:#000000;fill:#1a1a1a;stroke:#ff00ff;stroke-width:0.1;stroke-linecap:round;stroke-dasharray:none"
           d="m 64.927734,31.591797 a 0.80000001,0.80000001 0 0 0 -0.800781,0.798828 0.80000001,0.80000001 0 0 0 0.800781,0.800781 h 6.40625 a 0.80000001,0.80000001 0 0 0 0.800782,-0.800781 0.80000001,0.80000001 0 0 0 -0.800782,-0.798828 z"
           id="path3250" /></g></g></g></svg>
